<svg width="1512" height="21" viewBox="0 0 1512 21" fill="none" xmlns="http://www.w3.org/2000/svg">
<line y1="-0.5" x2="43.1557" y2="-0.5" transform="matrix(0.886129 -0.463438 0.946231 0.323491 -28 21)" stroke="#9F6632"/>
<line y1="-0.5" x2="43.1557" y2="-0.5" transform="matrix(0.886129 -0.463438 0.946231 0.323491 10.2416 21)" stroke="#9F6632"/>
<line y1="-0.5" x2="43.1557" y2="-0.5" transform="matrix(0.886129 -0.463438 0.946231 0.323491 -8.87921 21)" stroke="#9F6632"/>
<line y1="-0.5" x2="43.1557" y2="-0.5" transform="matrix(0.886129 -0.463438 0.946231 0.323491 29.3624 21)" stroke="#9F6632"/>
<line y1="-0.5" x2="43.1557" y2="-0.5" transform="matrix(0.886129 -0.463438 0.946231 0.323491 67.6039 21)" stroke="#9F6632"/>
<line y1="-0.5" x2="43.1557" y2="-0.5" transform="matrix(0.886129 -0.463438 0.946231 0.323491 48.4832 21)" stroke="#9F6632"/>
<line y1="-0.5" x2="43.1557" y2="-0.5" transform="matrix(0.886129 -0.463438 0.946231 0.323491 86.7247 21)" stroke="#9F6632"/>
<line y1="-0.5" x2="43.1557" y2="-0.5" transform="matrix(0.886129 -0.463438 0.946231 0.323491 124.966 21)" stroke="#9F6632"/>
<line y1="-0.5" x2="43.1557" y2="-0.5" transform="matrix(0.886129 -0.463438 0.946231 0.323491 105.846 21)" stroke="#9F6632"/>
<line y1="-0.5" x2="43.1557" y2="-0.5" transform="matrix(0.886129 -0.463438 0.946231 0.323491 144.087 21)" stroke="#9F6632"/>
<line y1="-0.5" x2="43.1557" y2="-0.5" transform="matrix(0.886129 -0.463438 0.946231 0.323491 182.329 21)" stroke="#9F6632"/>
<line y1="-0.5" x2="43.1557" y2="-0.5" transform="matrix(0.886129 -0.463438 0.946231 0.323491 163.208 21)" stroke="#9F6632"/>
<line y1="-0.5" x2="43.1557" y2="-0.5" transform="matrix(0.886129 -0.463438 0.946231 0.323491 201.449 21)" stroke="#9F6632"/>
<line y1="-0.5" x2="43.1557" y2="-0.5" transform="matrix(0.886129 -0.463438 0.946231 0.323491 239.691 21)" stroke="#9F6632"/>
<line y1="-0.5" x2="43.1557" y2="-0.5" transform="matrix(0.886129 -0.463438 0.946231 0.323491 220.57 21)" stroke="#9F6632"/>
<line y1="-0.5" x2="43.1557" y2="-0.5" transform="matrix(0.886129 -0.463438 0.946231 0.323491 258.812 21)" stroke="#9F6632"/>
<line y1="-0.5" x2="43.1557" y2="-0.5" transform="matrix(0.886129 -0.463438 0.946231 0.323491 297.053 21)" stroke="#9F6632"/>
<line y1="-0.5" x2="43.1557" y2="-0.5" transform="matrix(0.886129 -0.463438 0.946231 0.323491 277.933 21)" stroke="#9F6632"/>
<line y1="-0.5" x2="43.1557" y2="-0.5" transform="matrix(0.886129 -0.463438 0.946231 0.323491 316.174 21)" stroke="#9F6632"/>
<line y1="-0.5" x2="43.1557" y2="-0.5" transform="matrix(0.886129 -0.463438 0.946231 0.323491 354.416 21)" stroke="#9F6632"/>
<line y1="-0.5" x2="43.1557" y2="-0.5" transform="matrix(0.886129 -0.463438 0.946231 0.323491 335.295 21)" stroke="#9F6632"/>
<line y1="-0.5" x2="43.1557" y2="-0.5" transform="matrix(0.886129 -0.463438 0.946231 0.323491 373.537 21)" stroke="#9F6632"/>
<line y1="-0.5" x2="43.1557" y2="-0.5" transform="matrix(0.886129 -0.463438 0.946231 0.323491 411.778 21)" stroke="#9F6632"/>
<line y1="-0.5" x2="43.1557" y2="-0.5" transform="matrix(0.886129 -0.463438 0.946231 0.323491 392.657 21)" stroke="#9F6632"/>
<line y1="-0.5" x2="43.1557" y2="-0.5" transform="matrix(0.886129 -0.463438 0.946231 0.323491 430.899 21)" stroke="#9F6632"/>
<line y1="-0.5" x2="43.1557" y2="-0.5" transform="matrix(0.886129 -0.463438 0.946231 0.323491 469.141 21)" stroke="#9F6632"/>
<line y1="-0.5" x2="43.1557" y2="-0.5" transform="matrix(0.886129 -0.463438 0.946231 0.323491 450.02 21)" stroke="#9F6632"/>
<line y1="-0.5" x2="43.1557" y2="-0.5" transform="matrix(0.886129 -0.463438 0.946231 0.323491 488.261 21)" stroke="#9F6632"/>
<line y1="-0.5" x2="43.1557" y2="-0.5" transform="matrix(0.886129 -0.463438 0.946231 0.323491 526.503 21)" stroke="#9F6632"/>
<line y1="-0.5" x2="43.1557" y2="-0.5" transform="matrix(0.886129 -0.463438 0.946231 0.323491 507.382 21)" stroke="#9F6632"/>
<line y1="-0.5" x2="43.1557" y2="-0.5" transform="matrix(0.886129 -0.463438 0.946231 0.323491 545.624 21)" stroke="#9F6632"/>
<line y1="-0.5" x2="43.1557" y2="-0.5" transform="matrix(0.886129 -0.463438 0.946231 0.323491 583.865 21)" stroke="#9F6632"/>
<line y1="-0.5" x2="43.1557" y2="-0.5" transform="matrix(0.886129 -0.463438 0.946231 0.323491 564.744 21)" stroke="#9F6632"/>
<line y1="-0.5" x2="43.1557" y2="-0.5" transform="matrix(0.886129 -0.463438 0.946231 0.323491 602.986 21)" stroke="#9F6632"/>
<line y1="-0.5" x2="43.1557" y2="-0.5" transform="matrix(0.886129 -0.463438 0.946231 0.323491 641.228 21)" stroke="#9F6632"/>
<line y1="-0.5" x2="43.1557" y2="-0.5" transform="matrix(0.886129 -0.463438 0.946231 0.323491 622.107 21)" stroke="#9F6632"/>
<line y1="-0.5" x2="43.1557" y2="-0.5" transform="matrix(0.886129 -0.463438 0.946231 0.323491 660.348 21)" stroke="#9F6632"/>
<line y1="-0.5" x2="43.1557" y2="-0.5" transform="matrix(0.886129 -0.463438 0.946231 0.323491 698.59 21)" stroke="#9F6632"/>
<line y1="-0.5" x2="43.1557" y2="-0.5" transform="matrix(0.886129 -0.463438 0.946231 0.323491 679.469 21)" stroke="#9F6632"/>
<line y1="-0.5" x2="43.1557" y2="-0.5" transform="matrix(0.886129 -0.463438 0.946231 0.323491 717.711 21)" stroke="#9F6632"/>
<line y1="-0.5" x2="43.1557" y2="-0.5" transform="matrix(0.886129 -0.463438 0.946231 0.323491 755.952 21)" stroke="#9F6632"/>
<line y1="-0.5" x2="43.1557" y2="-0.5" transform="matrix(0.886129 -0.463438 0.946231 0.323491 736.832 21)" stroke="#9F6632"/>
<line y1="-0.5" x2="43.1557" y2="-0.5" transform="matrix(0.886129 -0.463438 0.946231 0.323491 775.073 21)" stroke="#9F6632"/>
<line y1="-0.5" x2="43.1557" y2="-0.5" transform="matrix(0.886129 -0.463438 0.946231 0.323491 813.315 21)" stroke="#9F6632"/>
<line y1="-0.5" x2="43.1557" y2="-0.5" transform="matrix(0.886129 -0.463438 0.946231 0.323491 794.194 21)" stroke="#9F6632"/>
<line y1="-0.5" x2="43.1557" y2="-0.5" transform="matrix(0.886129 -0.463438 0.946231 0.323491 832.435 21)" stroke="#9F6632"/>
<line y1="-0.5" x2="43.1557" y2="-0.5" transform="matrix(0.886129 -0.463438 0.946231 0.323491 870.677 21)" stroke="#9F6632"/>
<line y1="-0.5" x2="43.1557" y2="-0.5" transform="matrix(0.886129 -0.463438 0.946231 0.323491 851.556 21)" stroke="#9F6632"/>
<line y1="-0.5" x2="43.1557" y2="-0.5" transform="matrix(0.886129 -0.463438 0.946231 0.323491 889.798 21)" stroke="#9F6632"/>
<line y1="-0.5" x2="43.1557" y2="-0.5" transform="matrix(0.886129 -0.463438 0.946231 0.323491 928.039 21)" stroke="#9F6632"/>
<line y1="-0.5" x2="43.1557" y2="-0.5" transform="matrix(0.886129 -0.463438 0.946231 0.323491 908.919 21)" stroke="#9F6632"/>
<line y1="-0.5" x2="43.1557" y2="-0.5" transform="matrix(0.886129 -0.463438 0.946231 0.323491 947.16 21)" stroke="#9F6632"/>
<line y1="-0.5" x2="43.1557" y2="-0.5" transform="matrix(0.886129 -0.463438 0.946231 0.323491 985.402 21)" stroke="#9F6632"/>
<line y1="-0.5" x2="43.1557" y2="-0.5" transform="matrix(0.886129 -0.463438 0.946231 0.323491 966.281 21)" stroke="#9F6632"/>
<line y1="-0.5" x2="43.1557" y2="-0.5" transform="matrix(0.886129 -0.463438 0.946231 0.323491 1004.52 21)" stroke="#9F6632"/>
<line y1="-0.5" x2="43.1557" y2="-0.5" transform="matrix(0.886129 -0.463438 0.946231 0.323491 1042.76 21)" stroke="#9F6632"/>
<line y1="-0.5" x2="43.1557" y2="-0.5" transform="matrix(0.886129 -0.463438 0.946231 0.323491 1023.64 21)" stroke="#9F6632"/>
<line y1="-0.5" x2="43.1557" y2="-0.5" transform="matrix(0.886129 -0.463438 0.946231 0.323491 1061.88 21)" stroke="#9F6632"/>
<line y1="-0.5" x2="43.1557" y2="-0.5" transform="matrix(0.886129 -0.463438 0.946231 0.323491 1100.13 21)" stroke="#9F6632"/>
<line y1="-0.5" x2="43.1557" y2="-0.5" transform="matrix(0.886129 -0.463438 0.946231 0.323491 1081.01 21)" stroke="#9F6632"/>
<line y1="-0.5" x2="43.1557" y2="-0.5" transform="matrix(0.886129 -0.463438 0.946231 0.323491 1119.25 21)" stroke="#9F6632"/>
<line y1="-0.5" x2="43.1557" y2="-0.5" transform="matrix(0.886129 -0.463438 0.946231 0.323491 1157.49 21)" stroke="#9F6632"/>
<line y1="-0.5" x2="43.1557" y2="-0.5" transform="matrix(0.886129 -0.463438 0.946231 0.323491 1138.37 21)" stroke="#9F6632"/>
<line y1="-0.5" x2="43.1557" y2="-0.5" transform="matrix(0.886129 -0.463438 0.946231 0.323491 1176.61 21)" stroke="#9F6632"/>
<line y1="-0.5" x2="43.1557" y2="-0.5" transform="matrix(0.886129 -0.463438 0.946231 0.323491 1214.85 21)" stroke="#9F6632"/>
<line y1="-0.5" x2="43.1557" y2="-0.5" transform="matrix(0.886129 -0.463438 0.946231 0.323491 1195.73 21)" stroke="#9F6632"/>
<line y1="-0.5" x2="43.1557" y2="-0.5" transform="matrix(0.886129 -0.463438 0.946231 0.323491 1233.97 21)" stroke="#9F6632"/>
<line y1="-0.5" x2="43.1557" y2="-0.5" transform="matrix(0.886129 -0.463438 0.946231 0.323491 1272.21 21)" stroke="#9F6632"/>
<line y1="-0.5" x2="43.1557" y2="-0.5" transform="matrix(0.886129 -0.463438 0.946231 0.323491 1253.09 21)" stroke="#9F6632"/>
<line y1="-0.5" x2="43.1557" y2="-0.5" transform="matrix(0.886129 -0.463438 0.946231 0.323491 1291.33 21)" stroke="#9F6632"/>
<line y1="-0.5" x2="43.1557" y2="-0.5" transform="matrix(0.886129 -0.463438 0.946231 0.323491 1329.58 21)" stroke="#9F6632"/>
<line y1="-0.5" x2="43.1557" y2="-0.5" transform="matrix(0.886129 -0.463438 0.946231 0.323491 1310.46 21)" stroke="#9F6632"/>
<line y1="-0.5" x2="43.1557" y2="-0.5" transform="matrix(0.886129 -0.463438 0.946231 0.323491 1348.7 21)" stroke="#9F6632"/>
<line y1="-0.5" x2="43.1557" y2="-0.5" transform="matrix(0.886129 -0.463438 0.946231 0.323491 1386.94 21)" stroke="#9F6632"/>
<line y1="-0.5" x2="43.1557" y2="-0.5" transform="matrix(0.886129 -0.463438 0.946231 0.323491 1367.82 21)" stroke="#9F6632"/>
<line y1="-0.5" x2="43.1557" y2="-0.5" transform="matrix(0.886129 -0.463438 0.946231 0.323491 1406.06 21)" stroke="#9F6632"/>
<line y1="-0.5" x2="43.1557" y2="-0.5" transform="matrix(0.886129 -0.463438 0.946231 0.323491 1425.18 21)" stroke="#9F6632"/>
<line y1="-0.5" x2="43.1557" y2="-0.5" transform="matrix(0.886129 -0.463438 0.946231 0.323491 1442.29 21)" stroke="#9F6632"/>
<line y1="-0.5" x2="43.1557" y2="-0.5" transform="matrix(0.886129 -0.463438 0.946231 0.323491 1461.41 21)" stroke="#9F6632"/>
<line y1="-0.5" x2="43.1557" y2="-0.5" transform="matrix(0.886129 -0.463438 0.946231 0.323491 1480.53 21)" stroke="#9F6632"/>
<line y1="-0.5" x2="43.1557" y2="-0.5" transform="matrix(0.886129 -0.463438 0.946231 0.323491 1497.64 21)" stroke="#9F6632"/>
</svg>
